# Blender 3.1.2
# www.blender.org
mtllib AR.mtl
o Gun
v 1.000000 1.000000 -1.000000
v 0.517059 -1.000000 -0.517059
v 1.000000 1.000000 1.000000
v 0.517059 -1.000000 0.517059
v -1.000000 1.000000 -1.000000
v -0.517059 -1.000000 -0.517059
v -1.000000 1.000000 1.000000
v -0.517059 -1.000000 0.517059
v 5.394571 0.730358 -0.367669
v 5.394571 -0.004980 -0.367669
v 5.394571 0.730358 0.367669
v 5.394571 -0.004980 0.367669
v 5.394571 1.000000 -1.000000
v 3.583875 -0.875595 -0.458984
v 5.394571 1.000000 1.000000
v 3.583875 -0.875595 0.458984
v 10.423586 0.730358 -0.367669
v 10.423586 -0.004980 -0.367669
v 10.423586 0.730358 0.367669
v 10.423586 -0.004980 0.367669
v -1.883017 -0.518286 -0.680123
v -1.883017 -0.518286 0.680123
v -1.883017 0.841961 0.680123
v -1.883017 0.841961 -0.680123
v -4.308290 -1.628890 -0.680123
v -4.308290 -1.628890 0.680123
v -4.308290 0.755815 0.680123
v -4.308290 0.755815 -0.680123
v -1.000000 -0.811156 -1.000000
v -1.000000 -0.811156 1.000000
v 2.293147 -0.957798 -0.458984
v 2.293147 -0.957798 0.458984
v -1.023896 -2.821214 -0.517059
v -1.023896 -2.821214 0.517059
v 0.010221 -2.821214 -0.517059
v 0.010221 -2.821214 0.517059
v 1.000000 -1.000000 1.000000
v 1.000000 -1.000000 -1.000000
v 5.394571 -0.656152 1.000000
v 5.394571 -0.656152 -1.000000
v 2.701482 -2.035213 0.458984
v 2.701482 -2.035213 -0.458984
v 3.947899 -1.775769 0.458984
v 3.947899 -1.775769 -0.458984
v 3.649598 -3.337591 0.458984
v 3.649598 -3.337591 -0.458984
v 4.773252 -2.868212 0.458984
v 4.773252 -2.868212 -0.458984
vn -0.0000 1.0000 -0.0000
vn -0.0000 -0.0000 1.0000
vn -0.3148 -0.9492 -0.0000
vn -0.9634 0.2681 -0.0000
vn -0.0000 -0.0000 -1.0000
vn 1.0000 -0.0000 -0.0000
vn -0.0000 -1.0000 -0.0000
vn -0.0355 0.9994 -0.0000
vn -0.1762 0.9844 -0.0000
vn -0.3406 -0.0000 -0.9402
vn -0.3406 -0.0000 0.9402
vn -1.0000 -0.0000 -0.0000
vn 0.4164 -0.9092 -0.0000
vn -0.3642 -0.9313 -0.0000
vn -0.0610 -0.9796 -0.1915
vn -0.0610 -0.9796 0.1915
vn 0.9634 -0.2681 -0.0000
vn 0.0326 -0.9995 -0.0000
vn 0.1203 -0.9927 -0.0000
vn 0.0741 -0.9892 0.1266
vn 0.0741 -0.9892 -0.1266
vn -0.9351 -0.3544 -0.0000
vn 0.9271 0.3749 -0.0000
vn 0.3854 -0.9227 -0.0000
vn -0.8085 -0.5886 -0.0000
vn 0.7979 0.6028 -0.0000
vt 0.625000 0.500000
vt 0.314632 0.560368
vt 0.625000 0.750000
vt 0.314632 0.689632
vt 0.875000 0.500000
vt 0.625000 0.250000
vt 0.185368 0.560368
vt 0.875000 0.750000
vt 0.625000 1.000000
vt 0.185368 0.689632
vt 0.545959 0.579041
vt 0.454041 0.579041
vt 0.545959 0.670959
vt 0.454041 0.670959
vt 0.625000 0.500000
vt 0.375000 0.567627
vt 0.625000 0.750000
vt 0.375000 0.682373
vt 0.545959 0.579041
vt 0.454041 0.579041
vt 0.545959 0.670959
vt 0.454041 0.670959
vt 0.375000 0.250000
vt 0.125000 0.500000
vt 0.375000 1.000000
vt 0.125000 0.750000
vt 0.875000 0.750000
vt 0.625000 1.000000
vt 0.875000 0.500000
vt 0.625000 0.250000
vt 0.375000 0.250000
vt 0.125000 0.500000
vt 0.375000 0.000000
vt 0.375000 1.000000
vt 0.125000 0.750000
vt 0.875000 0.750000
vt 0.625000 0.000000
vt 0.625000 1.000000
vt 0.875000 0.500000
vt 0.625000 0.250000
vt 0.375000 0.250000
vt 0.125000 0.500000
vt 0.375000 1.000000
vt 0.125000 0.750000
vt 0.375000 0.567627
vt 0.375000 0.682373
vt 0.185368 0.560368
vt 0.185368 0.689632
vt 0.314632 0.560368
vt 0.314632 0.689632
vt 0.375000 0.750000
vt 0.375000 0.500000
vt 0.375000 0.750000
vt 0.375000 0.500000
vt 0.375000 0.682373
vt 0.375000 0.567627
vt 0.375000 0.682373
vt 0.375000 0.567627
vt 0.375000 0.682373
vt 0.375000 0.567627
vt 0.375000 0.682373
vt 0.375000 0.567627
s 0
usemtl Material
f 1/1/1 5/5/1 7/8/1 3/3/1
f 37/51/2 3/3/2 7/9/2 30/43/2
f 29/42/3 30/44/3 22/26/3 21/24/3
f 8/10/4 6/7/4 33/47/4 34/48/4
f 3/3/2 37/51/2 39/53/2 15/17/2
f 29/41/5 5/6/5 1/1/5 38/52/5
f 11/13/2 12/14/2 20/22/2 19/21/2
f 38/52/5 1/1/5 13/15/5 40/54/5
f 16/18/2 32/46/2 41/55/2 43/57/2
f 1/1/1 3/3/1 15/17/1 13/15/1
f 9/11/6 10/12/6 40/54/6 13/15/6
f 12/14/6 11/13/6 15/17/6 39/53/6
f 11/13/6 9/11/6 13/15/6 15/17/6
f 10/12/6 12/14/6 39/53/6 40/54/6
f 18/20/6 17/19/6 19/21/6 20/22/6
f 9/11/1 11/13/1 19/21/1 17/19/1
f 10/12/5 9/11/5 17/19/5 18/20/5
f 12/14/7 10/12/7 18/20/7 20/22/7
f 23/27/8 24/29/8 28/39/8 27/36/8
f 7/8/9 5/5/9 24/29/9 23/27/9
f 5/6/10 29/41/10 21/23/10 24/30/10
f 30/43/11 7/9/11 23/28/11 22/25/11
f 26/33/12 27/37/12 28/40/12 25/31/12
f 22/25/2 23/28/2 27/38/2 26/34/2
f 24/30/5 21/23/5 25/31/5 28/40/5
f 21/24/13 22/26/13 26/35/13 25/32/13
f 6/7/14 8/10/14 30/44/14 29/42/14
f 2/2/15 6/7/15 29/42/15 38/52/15
f 8/10/16 4/4/16 37/51/16 30/44/16
f 4/4/7 2/2/7 38/52/7 37/51/7
f 33/47/7 35/49/7 36/50/7 34/48/7
f 2/2/17 4/4/17 36/50/17 35/49/17
f 6/7/5 2/2/5 35/49/5 33/47/5
f 4/4/2 8/10/2 34/48/2 36/50/2
f 31/45/18 32/46/18 37/51/18 38/52/18
f 16/18/19 14/16/19 40/54/19 39/53/19
f 32/46/20 16/18/20 39/53/20 37/51/20
f 14/16/21 31/45/21 38/52/21 40/54/21
f 43/57/2 41/55/2 45/59/2 47/61/2
f 32/46/22 31/45/22 42/56/22 41/55/22
f 31/45/5 14/16/5 44/58/5 42/56/5
f 14/16/23 16/18/23 43/57/23 44/58/23
f 45/59/24 46/60/24 48/62/24 47/61/24
f 41/55/25 42/56/25 46/60/25 45/59/25
f 42/56/5 44/58/5 48/62/5 46/60/5
f 44/58/26 43/57/26 47/61/26 48/62/26
